<svg width="106" height="51" viewBox="0 0 106 51" fill="none" xmlns="http://www.w3.org/2000/svg">
<path d="M56.3984 33.8961V18.4551H58.4851L59.3856 21.4422V33.8961H56.3984ZM67.0732 33.8961L57.914 22.0353L58.4851 18.4551L67.6442 30.3159L67.0732 33.8961ZM67.0732 33.8961L66.2166 30.9968V18.4551H69.2257V33.8961H67.0732Z" fill="#FF8801"/>
<path d="M77.0354 34.1157C75.9665 34.1157 75.0001 33.8741 74.1361 33.3909C73.2868 32.8931 72.6059 32.2268 72.0934 31.3922C71.5956 30.5429 71.3466 29.5984 71.3466 28.5587C71.3466 27.5191 71.5956 26.5893 72.0934 25.7692C72.5913 24.9346 73.2722 24.2757 74.1361 23.7924C75.0001 23.2946 75.9592 23.0457 77.0135 23.0457C78.097 23.0457 79.0635 23.2946 79.9128 23.7924C80.7767 24.2757 81.4576 24.9346 81.9555 25.7692C82.4533 26.5893 82.7023 27.5191 82.7023 28.5587C82.7023 29.5984 82.4533 30.5429 81.9555 31.3922C81.4576 32.2268 80.7767 32.8931 79.9128 33.3909C79.0635 33.8741 78.1044 34.1157 77.0354 34.1157ZM77.0135 31.4361C77.5553 31.4361 78.0312 31.3189 78.4412 31.0847C78.8658 30.8357 79.188 30.4989 79.4076 30.0743C79.6419 29.635 79.759 29.1371 79.759 28.5807C79.759 28.0243 79.6419 27.5337 79.4076 27.1091C79.1733 26.6844 78.8512 26.355 78.4412 26.1207C78.0312 25.8717 77.5553 25.7473 77.0135 25.7473C76.4863 25.7473 76.0177 25.8717 75.6077 26.1207C75.1977 26.355 74.8756 26.6844 74.6413 27.1091C74.407 27.5337 74.2899 28.0243 74.2899 28.5807C74.2899 29.1371 74.407 29.635 74.6413 30.0743C74.8756 30.4989 75.1977 30.8357 75.6077 31.0847C76.0177 31.3189 76.4863 31.4361 77.0135 31.4361Z" fill="#FF8801"/>
<path d="M87.7028 33.8961L83.0244 23.2873H86.1872L89.5478 32.0291H87.9883L91.3709 23.2873H94.4239L89.7674 33.8961H87.7028Z" fill="#FF8801"/>
<path d="M99.8879 34.1157C98.9215 34.1157 98.0502 33.8741 97.2742 33.3909C96.4981 32.9077 95.8904 32.2488 95.4511 31.4141C95.0118 30.5795 94.7922 29.6423 94.7922 28.6027C94.7922 27.5484 95.0118 26.6039 95.4511 25.7692C95.8904 24.9346 96.4981 24.2757 97.2742 23.7924C98.0502 23.3092 98.9215 23.0676 99.8879 23.0676C100.649 23.0676 101.33 23.2214 101.931 23.5289C102.531 23.8364 103.007 24.2683 103.358 24.8248C103.724 25.3666 103.922 25.9816 103.951 26.6698V30.4916C103.922 31.1945 103.724 31.8168 103.358 32.3586C103.007 32.9004 102.531 33.3323 101.931 33.6545C101.33 33.962 100.649 34.1157 99.8879 34.1157ZM100.415 31.458C101.22 31.458 101.872 31.1945 102.37 30.6673C102.868 30.1255 103.117 29.43 103.117 28.5807C103.117 28.0243 103 27.5337 102.765 27.1091C102.546 26.6698 102.231 26.333 101.821 26.0987C101.425 25.8498 100.957 25.7253 100.415 25.7253C99.8879 25.7253 99.4193 25.8498 99.0093 26.0987C98.614 26.333 98.2992 26.6698 98.0649 27.1091C97.8452 27.5337 97.7354 28.0243 97.7354 28.5807C97.7354 29.1518 97.8452 29.657 98.0649 30.0962C98.2992 30.5209 98.614 30.8577 99.0093 31.1066C99.4193 31.3409 99.8879 31.458 100.415 31.458ZM102.963 33.8961V31.0407L103.424 28.4489L102.963 25.901V23.2873H105.818V33.8961H102.963Z" fill="#FF8801"/>
<path d="M56.3984 33.8961V18.4551H58.4851L59.3856 21.4422V33.8961H56.3984ZM67.0732 33.8961L57.914 22.0353L58.4851 18.4551L67.6442 30.3159L67.0732 33.8961ZM67.0732 33.8961L66.2166 30.9968V18.4551H69.2257V33.8961H67.0732Z" fill="#E11D48"/>
<path d="M77.0354 34.1157C75.9665 34.1157 75.0001 33.8741 74.1361 33.3909C73.2868 32.8931 72.6059 32.2268 72.0934 31.3922C71.5956 30.5429 71.3466 29.5984 71.3466 28.5587C71.3466 27.5191 71.5956 26.5893 72.0934 25.7692C72.5913 24.9346 73.2722 24.2757 74.1361 23.7924C75.0001 23.2946 75.9592 23.0457 77.0135 23.0457C78.097 23.0457 79.0635 23.2946 79.9128 23.7924C80.7767 24.2757 81.4576 24.9346 81.9555 25.7692C82.4533 26.5893 82.7023 27.5191 82.7023 28.5587C82.7023 29.5984 82.4533 30.5429 81.9555 31.3922C81.4576 32.2268 80.7767 32.8931 79.9128 33.3909C79.0635 33.8741 78.1044 34.1157 77.0354 34.1157ZM77.0135 31.4361C77.5553 31.4361 78.0312 31.3189 78.4412 31.0847C78.8658 30.8357 79.188 30.4989 79.4076 30.0743C79.6419 29.635 79.759 29.1371 79.759 28.5807C79.759 28.0243 79.6419 27.5337 79.4076 27.1091C79.1733 26.6844 78.8512 26.355 78.4412 26.1207C78.0312 25.8717 77.5553 25.7473 77.0135 25.7473C76.4863 25.7473 76.0177 25.8717 75.6077 26.1207C75.1977 26.355 74.8756 26.6844 74.6413 27.1091C74.407 27.5337 74.2899 28.0243 74.2899 28.5807C74.2899 29.1371 74.407 29.635 74.6413 30.0743C74.8756 30.4989 75.1977 30.8357 75.6077 31.0847C76.0177 31.3189 76.4863 31.4361 77.0135 31.4361Z" fill="#E11D48"/>
<path d="M87.7028 33.8961L83.0244 23.2873H86.1872L89.5478 32.0291H87.9883L91.3709 23.2873H94.4239L89.7674 33.8961H87.7028Z" fill="#E11D48"/>
<path d="M99.8879 34.1157C98.9215 34.1157 98.0502 33.8741 97.2742 33.3909C96.4981 32.9077 95.8904 32.2488 95.4511 31.4141C95.0118 30.5795 94.7922 29.6423 94.7922 28.6027C94.7922 27.5484 95.0118 26.6039 95.4511 25.7692C95.8904 24.9346 96.4981 24.2757 97.2742 23.7924C98.0502 23.3092 98.9215 23.0676 99.8879 23.0676C100.649 23.0676 101.33 23.2214 101.931 23.5289C102.531 23.8364 103.007 24.2683 103.358 24.8248C103.724 25.3666 103.922 25.9816 103.951 26.6698V30.4916C103.922 31.1945 103.724 31.8168 103.358 32.3586C103.007 32.9004 102.531 33.3323 101.931 33.6545C101.33 33.962 100.649 34.1157 99.8879 34.1157ZM100.415 31.458C101.22 31.458 101.872 31.1945 102.37 30.6673C102.868 30.1255 103.117 29.43 103.117 28.5807C103.117 28.0243 103 27.5337 102.765 27.1091C102.546 26.6698 102.231 26.333 101.821 26.0987C101.425 25.8498 100.957 25.7253 100.415 25.7253C99.8879 25.7253 99.4193 25.8498 99.0093 26.0987C98.614 26.333 98.2992 26.6698 98.0649 27.1091C97.8452 27.5337 97.7354 28.0243 97.7354 28.5807C97.7354 29.1518 97.8452 29.657 98.0649 30.0962C98.2992 30.5209 98.614 30.8577 99.0093 31.1066C99.4193 31.3409 99.8879 31.458 100.415 31.458ZM102.963 33.8961V31.0407L103.424 28.4489L102.963 25.901V23.2873H105.818V33.8961H102.963Z" fill="#E11D48"/>
<path d="M11.9839 33.6772C10.322 33.6772 8.97473 32.33 8.97473 30.6681V18.5656H11.9839V33.6772ZM4.05469 20.8939V18.2362H16.9039V20.8939H4.05469Z" fill="#2B54CC"/>
<path d="M21.0945 33.8968C19.9816 33.8968 18.9932 33.6625 18.1293 33.194C17.2653 32.7108 16.5771 32.0518 16.0646 31.2172C15.5668 30.3825 15.3178 29.4307 15.3178 28.3618C15.3178 27.3075 15.5594 26.3703 16.0427 25.5503C16.5405 24.7157 17.2141 24.0568 18.0634 23.5735C18.9127 23.0757 19.8572 22.8267 20.8968 22.8267C21.9218 22.8267 22.8224 23.061 23.5984 23.5296C24.3892 23.9835 25.0042 24.6132 25.4435 25.4185C25.8974 26.2093 26.1243 27.1098 26.1243 28.1202C26.1243 28.3105 26.1097 28.5082 26.0804 28.7132C26.0658 28.9036 26.0292 29.1232 25.9706 29.3722L17.053 29.3941V27.2416L24.6308 27.2196L23.4666 28.1202C23.4374 27.4905 23.3202 26.9634 23.1152 26.5387C22.9249 26.1141 22.6393 25.7919 22.2586 25.5723C21.8925 25.338 21.4386 25.2209 20.8968 25.2209C20.3257 25.2209 19.8279 25.3527 19.4032 25.6162C18.9786 25.8652 18.6491 26.2239 18.4148 26.6925C18.1952 27.1464 18.0854 27.6882 18.0854 28.3179C18.0854 28.9621 18.2025 29.5259 18.4368 30.0091C18.6857 30.4777 19.0371 30.8438 19.4911 31.1073C19.945 31.3563 20.4722 31.4807 21.0725 31.4807C21.6143 31.4807 22.1049 31.3929 22.5441 31.2172C22.9834 31.0268 23.3641 30.7486 23.6863 30.3825L25.3776 32.0738C24.8651 32.6741 24.2354 33.1281 23.4886 33.4356C22.7565 33.7431 21.9584 33.8968 21.0945 33.8968Z" fill="#2B54CC"/>
<path d="M32.9117 33.8968C31.8281 33.8968 30.8544 33.6552 29.9904 33.172C29.1265 32.6888 28.4456 32.0299 27.9477 31.1952C27.4499 30.3606 27.201 29.4234 27.201 28.3838C27.201 27.3295 27.4499 26.385 27.9477 25.5503C28.4456 24.7157 29.1265 24.0568 29.9904 23.5735C30.869 23.0757 31.8428 22.8267 32.9117 22.8267C33.7464 22.8267 34.5151 22.9805 35.218 23.288C35.9208 23.5955 36.5285 24.0348 37.041 24.6059L35.196 26.4728C34.9178 26.1653 34.581 25.9311 34.1857 25.77C33.8049 25.6089 33.3803 25.5284 32.9117 25.5284C32.3846 25.5284 31.9087 25.6528 31.484 25.9018C31.074 26.1361 30.7446 26.4655 30.4956 26.8902C30.2613 27.3002 30.1442 27.7907 30.1442 28.3618C30.1442 28.9182 30.2613 29.4161 30.4956 29.8554C30.7446 30.28 31.074 30.6168 31.484 30.8657C31.9087 31.1 32.3846 31.2172 32.9117 31.2172C33.3949 31.2172 33.8269 31.1366 34.2076 30.9756C34.603 30.7998 34.9398 30.5509 35.218 30.2288L37.085 32.0957C36.5432 32.6815 35.9208 33.1281 35.218 33.4356C34.5151 33.7431 33.7464 33.8968 32.9117 33.8968Z" fill="#2B54CC"/>
<path d="M45.8529 33.8968V27.593C45.8529 26.9634 45.6552 26.4509 45.2599 26.0555C44.8645 25.6602 44.352 25.4625 43.7224 25.4625C43.3123 25.4625 42.9463 25.5503 42.6241 25.726C42.302 25.9018 42.0457 26.1507 41.8554 26.4728C41.6797 26.795 41.5918 27.1684 41.5918 27.593L40.4716 27.022C40.4716 26.1873 40.6473 25.4625 40.9988 24.8475C41.3502 24.2178 41.8334 23.7273 42.4484 23.3759C43.0781 23.0244 43.7956 22.8487 44.6009 22.8487C45.4063 22.8487 46.1165 23.0244 46.7315 23.3759C47.3611 23.7273 47.8517 24.2105 48.2031 24.8255C48.5545 25.4405 48.7303 26.1507 48.7303 26.9561V33.8968H45.8529ZM38.7145 33.8968V17.7969H41.5918V33.8968H38.7145Z" fill="#2B54CC"/>
</svg>